# xmcd
#
# Track frame offsets: 
#        150
#        19191
#        33411
#
# Disc length: 635 seconds
#
# Revision: 0
# Processed by: cddbd v1.5.2PL0 Copyright (c) Steve Scherf et al.
# Submitted via: ExactAudioCopyFreeDBPlugin 1.0
#
DISCID=1b027903
DTITLE=Sarah Montgomery - Tennessee in the Fall
DYEAR=2011
DGENRE=Country
TTITLE0=Tennessee in the Fall
TTITLE1=Bad Idea
TTITLE2=My Love Is All You Need
EXTD=
EXTT0=
EXTT1=
EXTT2=
PLAYORDER=
